{"title":"Afterlife.S01.DVDRip.XViD-iNFiNiTE","uid":4982568,"size":2202422305,"categoryP":"video","categoryS":"tv_shows","magnet":"?xt=urn:btih:7d21667f0f4f89b29c0774e17470cfe567deb190&amp;dn=Afterlife.S01.DVDRip.XViD-iNFiNiTE&amp;tr=udp%3A%2F%2Ftracker.openbittorrent.com%3A80&amp;tr=udp%3A%2F%2Fopen.demonii.com%3A1337&amp;tr=udp%3A%2F%2Ftracker.coppersurfer.tk%3A6969&amp;tr=udp%3A%2F%2Fexodus.desync.com%3A6969","seeders":1,"leechers":1,"uploader":"Atilla82","files":-1,"time":1246412708,"description":"University lecturer Robert Bridge (Andrew Lincoln) becomes involved in a series of supernatural events surrounding medium Alison Mundy (Lesley Sharp) in this chilling TV series. \n\n\nGeneral\n\nFormat                           : AVI\nFile size                        : 350 MiB\nOverall bit rate                 : 1 039 Kbps\nWriting application              : VirtualDubMod 1.5.4.1 (build 2178/release)\nWriting library                  : VirtualDubMod build 2178/release\n\nVideo\nFormat                           : MPEG-4 Visual\nFormat profile                   : Streaming Video@L1\nFormat settings, BVOP            : Yes\nCodec ID                         : XVID\nBit rate                         : 895 Kbps\nWidth                            : 640 pixels\nHeight                           : 368 pixels\nDisplay aspect ratio             : 16/9\nFrame rate                       : 25.000 fps\nResolution                       : 24 bits\nColorimetry                      : 4:2:0\nScan type                        : Progressive\nBits/(Pixel*Frame)               : 0.152\nStream size                      : 301 MiB (86%)\nWriting library                  : XviD 1.1.0 (UTC 2005-11-22)\n\nAudio\nFormat                           : MPEG Audio\nFormat version                   : Version 1\nFormat profile                   : Layer 3\nCodec ID                         : 55\nCodec ID/Hint                    : MP3\nBit rate mode                    : Variable\nBit rate                         : 132 Kbps\nNominal bit rate                 : 128 Kbps\nChannel(s)                       : 2 channels\nSampling rate                    : 48.0 KHz\nResolution                       : 16 bits\nStream size                      : 44.4 MiB (13%)\nAlignment                        : Aligned on interleaves\nInterleave, duration             : 24 ms (0.60 video frame)\nInterleave, preload duration     : 139 ms\nWriting library                  : LAME3.96r\nEncoding settings                : -m j -V 4 -q 2 -lowpass 17.5 --abr 128\nLanguage                         : English\n\n","torrent":{"xt":"urn:btih:7d21667f0f4f89b29c0774e17470cfe567deb190","amp;dn":"Afterlife.S01.DVDRip.XViD-iNFiNiTE","amp;tr":["udp%3A%2F%2Ftracker.openbittorrent.com%3A80","udp%3A%2F%2Fopen.demonii.com%3A1337","udp%3A%2F%2Ftracker.coppersurfer.tk%3A6969","udp%3A%2F%2Fexodus.desync.com%3A6969"],"infoHash":"7d21667f0f4f89b29c0774e17470cfe567deb190","infoHashBuffer":{"type":"Buffer","data":[125,33,102,127,15,79,137,178,156,7,116,225,116,112,207,229,103,222,177,144]},"announce":[],"urlList":[]}}